<svg xmlns="http://www.w3.org/2000/svg" viewBox="0 0 32 32">
  <!-- Background -->
  <rect width="32" height="32" fill="#B22234"/>
  
  <!-- White stripes -->
  <rect y="2.5" width="32" height="2.3" fill="white"/>
  <rect y="7.1" width="32" height="2.3" fill="white"/>
  <rect y="11.7" width="32" height="2.3" fill="white"/>
  <rect y="16.3" width="32" height="2.3" fill="white"/>
  <rect y="20.9" width="32" height="2.3" fill="white"/>
  <rect y="25.5" width="32" height="2.3" fill="white"/>
  <rect y="30.1" width="32" height="1.9" fill="white"/>
  
  <!-- Blue canton -->
  <rect width="12.8" height="17.1" fill="#3C3B6E"/>
  
  <!-- Stars (simplified) -->
  <g fill="white">
    <circle cx="2.1" cy="2.1" r="0.3"/>
    <circle cx="4.3" cy="2.1" r="0.3"/>
    <circle cx="6.4" cy="2.1" r="0.3"/>
    <circle cx="8.5" cy="2.1" r="0.3"/>
    <circle cx="10.7" cy="2.1" r="0.3"/>
    
    <circle cx="3.2" cy="3.4" r="0.3"/>
    <circle cx="5.3" cy="3.4" r="0.3"/>
    <circle cx="7.4" cy="3.4" r="0.3"/>
    <circle cx="9.6" cy="3.4" r="0.3"/>
    
    <circle cx="2.1" cy="4.7" r="0.3"/>
    <circle cx="4.3" cy="4.7" r="0.3"/>
    <circle cx="6.4" cy="4.7" r="0.3"/>
    <circle cx="8.5" cy="4.7" r="0.3"/>
    <circle cx="10.7" cy="4.7" r="0.3"/>
    
    <circle cx="3.2" cy="6" r="0.3"/>
    <circle cx="5.3" cy="6" r="0.3"/>
    <circle cx="7.4" cy="6" r="0.3"/>
    <circle cx="9.6" cy="6" r="0.3"/>
    
    <circle cx="2.1" cy="7.3" r="0.3"/>
    <circle cx="4.3" cy="7.3" r="0.3"/>
    <circle cx="6.4" cy="7.3" r="0.3"/>
    <circle cx="8.5" cy="7.3" r="0.3"/>
    <circle cx="10.7" cy="7.3" r="0.3"/>
    
    <circle cx="3.2" cy="8.6" r="0.3"/>
    <circle cx="5.3" cy="8.6" r="0.3"/>
    <circle cx="7.4" cy="8.6" r="0.3"/>
    <circle cx="9.6" cy="8.6" r="0.3"/>
    
    <circle cx="2.1" cy="9.9" r="0.3"/>
    <circle cx="4.3" cy="9.9" r="0.3"/>
    <circle cx="6.4" cy="9.9" r="0.3"/>
    <circle cx="8.5" cy="9.9" r="0.3"/>
    <circle cx="10.7" cy="9.9" r="0.3"/>
    
    <circle cx="3.2" cy="11.2" r="0.3"/>
    <circle cx="5.3" cy="11.2" r="0.3"/>
    <circle cx="7.4" cy="11.2" r="0.3"/>
    <circle cx="9.6" cy="11.2" r="0.3"/>
    
    <circle cx="2.1" cy="12.5" r="0.3"/>
    <circle cx="4.3" cy="12.5" r="0.3"/>
    <circle cx="6.4" cy="12.5" r="0.3"/>
    <circle cx="8.5" cy="12.5" r="0.3"/>
    <circle cx="10.7" cy="12.5" r="0.3"/>
  </g>
</svg>
