<svg viewBox="0 0 730 730" version="1.1" xmlns="http://www.w3.org/2000/svg"><path fill="#9c9595" stroke="#9c9595" stroke-width="4" opacity="1" d="M 297.5 279 L 308.5 280 Q 316.9 283.6 322 290.5 L 387 423 L 383.5 424 L 382.5 423 L 359.5 423 L 357.5 423 L 354 421.5 Q 348.1 404.9 338.5 392 L 335.5 391 L 264.5 391 L 260.5 392 L 258 394.5 L 244 423 L 239.5 424 L 238.5 423 L 217.5 423 L 215.5 423 L 213.5 424 L 213 422.5 L 275 295.5 L 285.5 284 L 297.5 279 Z M 300 316 L 297 317 L 274 364 L 275 365 L 326 365 L 304 320 L 300 316 Z "/><path fill="#9c9595" stroke="#9c9595" stroke-width="4" opacity="1" d="M 73 282 L 232.5 282 L 233 282.5 L 233 309 L 179.5 309 Q 173 310.5 170 315.5 L 168 323.5 L 168 339.5 L 169 342.5 L 169 422.5 L 168.5 423 L 159.5 423 L 157.5 423 L 147.5 423 L 146.5 424 L 141 423 L 141 322.5 Q 138.8 321.3 140 316.5 L 135.5 311 L 130.5 309 L 73 309 L 73 282 Z "/><path fill="#9c9595" stroke="#9c9595" stroke-width="4" opacity="1" d="M 380 282 L 469.5 282 Q 486.1 285.9 495 297.5 L 502 311.5 L 504 328.5 L 503 329.5 L 503 339.5 L 501 346.5 Q 497.1 357.1 489.5 364 Q 482 371.5 469 373.5 L 486.5 393 L 493.5 396 L 600.5 396 L 609.5 393 L 614 388.5 L 615 379.5 L 609.5 372 L 591.5 366 L 587.5 366 L 583.5 364 L 579.5 364 L 571.5 361 L 567.5 361 L 563.5 359 L 559.5 359 L 555.5 357 L 540.5 354 Q 527.5 350 520 340.5 Q 514.9 334.1 513 324.5 L 513 309.5 Q 515.3 295.8 524.5 289 L 533.5 284 Q 539.6 284.6 542.5 282 L 631 282 L 631 309 L 590.5 309 L 589.5 310 L 548.5 310 L 543 313.5 L 542 321.5 L 545.5 326 L 551.5 329 L 563.5 331 L 570.5 334 L 583.5 336 L 587.5 338 L 614.5 344 L 623.5 348 L 632 354 L 639 364.5 L 642 372.5 L 643 388.5 Q 640.5 390 642 395.5 L 639 402.5 L 628.5 415 L 617.5 421 L 609.5 423 L 495.5 423 L 493.5 424 L 479.5 421 L 473.5 418 L 460 406.5 L 435.5 376 L 430.5 374 L 409 374 L 409 422.5 Q 408.8 423.8 402.5 423 L 400.5 423 Q 397.2 424.1 398 421.5 L 381 389.5 L 380 384.5 L 380 282 Z M 409 309 L 409 346 L 462 346 L 467 344 L 475 334 Q 477 321 472 316 L 465 310 L 461 309 L 409 309 Z "/></svg>
